<svg width="151" height="150" viewBox="0 0 151 150" fill="none" xmlns="http://www.w3.org/2000/svg">
<ellipse cx="53.9465" cy="35.5263" rx="16.4179" ry="16.5789" transform="rotate(-180 53.9465 35.5263)" fill="#8E1321"/>
<ellipse cx="56.1852" cy="133.421" rx="16.4179" ry="16.5789" transform="rotate(-180 56.1852 133.421)" fill="#8E1321"/>
<ellipse cx="134.917" cy="28.421" rx="16.0448" ry="16.5789" transform="rotate(-180 134.917 28.421)" fill="#8E1321"/>
<ellipse cx="14.7674" cy="11.8421" rx="11.5672" ry="11.8421" transform="rotate(-180 14.7674 11.8421)" fill="#8E1321"/>
<ellipse cx="95.3644" cy="65.1316" rx="11.5672" ry="12.2368" transform="rotate(-180 95.3644 65.1316)" fill="#8E1321"/>
<ellipse cx="12.9017" cy="138.158" rx="11.9403" ry="11.8421" transform="rotate(-180 12.9017 138.158)" fill="#8E1321"/>
<ellipse cx="9.17038" cy="52.1052" rx="8.20895" ry="8.68421" transform="rotate(-180 9.17038 52.1052)" fill="#8E1321"/>
<ellipse cx="89.7674" cy="10.2631" rx="8.20895" ry="8.68421" transform="rotate(-180 89.7674 10.2631)" fill="#8E1321"/>
<ellipse cx="36.7823" cy="85.6579" rx="19.403" ry="20.9211" transform="rotate(-180 36.7823 85.6579)" fill="#8E1321"/>
</svg>
