<svg width="206" height="189" viewBox="0 0 206 189" fill="none" xmlns="http://www.w3.org/2000/svg">
<ellipse cx="130.999" cy="143.346" rx="21.0219" ry="20.8522" transform="rotate(0.090814 130.999 143.346)" fill="#7F141E"/>
<ellipse cx="131.193" cy="21.2117" rx="21.0219" ry="20.8522" transform="rotate(0.090814 131.193 21.2117)" fill="#7F141E"/>
<ellipse cx="21.8716" cy="152.11" rx="21.0219" ry="20.8522" transform="rotate(0.090814 21.8716 152.11)" fill="#7F141E"/>
<ellipse cx="183.006" cy="173.217" rx="15.0156" ry="14.8945" transform="rotate(0.090814 183.006 173.217)" fill="#7F141E"/>
<ellipse cx="78.0023" cy="106.522" rx="15.0156" ry="14.8945" transform="rotate(0.090814 78.0023 106.522)" fill="#7F141E"/>
<ellipse cx="190.264" cy="15.3476" rx="15.0156" ry="14.8945" transform="rotate(0.090814 190.264 15.3476)" fill="#7F141E"/>
<ellipse cx="194.098" cy="122.594" rx="11.0115" ry="10.9226" transform="rotate(0.090814 194.098 122.594)" fill="#7F141E"/>
<ellipse cx="81.8978" cy="175.043" rx="11.0115" ry="10.9226" transform="rotate(0.090814 81.8978 175.043)" fill="#7F141E"/>
<ellipse cx="157.126" cy="80.8307" rx="26.0271" ry="25.817" transform="rotate(0.090814 157.126 80.8307)" fill="#7F141E"/>
</svg>
