<svg width="202" height="190" viewBox="0 0 202 190" fill="none" xmlns="http://www.w3.org/2000/svg">
<ellipse cx="71.5522" cy="45.6236" rx="22.0229" ry="20.8522" transform="rotate(-179.909 71.5522 45.6236)" fill="#7F141E"/>
<ellipse cx="74.3602" cy="168.756" rx="22.0229" ry="20.8522" transform="rotate(-179.909 74.3602 168.756)" fill="#7F141E"/>
<ellipse cx="180.179" cy="36.8591" rx="21.5224" ry="20.8522" transform="rotate(-179.909 180.179 36.8591)" fill="#7F141E"/>
<ellipse cx="19.0448" cy="15.7514" rx="15.5162" ry="14.8945" transform="rotate(-179.909 19.0448 15.7514)" fill="#7F141E"/>
<ellipse cx="127.051" cy="82.9477" rx="15.5162" ry="15.3909" transform="rotate(-179.909 127.051 82.9477)" fill="#7F141E"/>
<ellipse cx="16.2904" cy="174.621" rx="16.0167" ry="14.8945" transform="rotate(-179.909 16.2904 174.621)" fill="#7F141E"/>
<ellipse cx="11.4567" cy="66.3806" rx="11.0115" ry="10.9226" transform="rotate(-179.909 11.4567 66.3806)" fill="#7F141E"/>
<ellipse cx="119.653" cy="13.925" rx="11.0115" ry="10.9226" transform="rotate(-179.909 119.653 13.925)" fill="#7F141E"/>
<ellipse cx="48.4283" cy="108.64" rx="26.0271" ry="26.3135" transform="rotate(-179.909 48.4283 108.64)" fill="#7F141E"/>
</svg>
