<svg width="150" height="150" viewBox="0 0 150 150" fill="none" xmlns="http://www.w3.org/2000/svg">
<ellipse cx="52.985" cy="35.5263" rx="16.4179" ry="16.5789" transform="rotate(-180 52.985 35.5263)" fill="#8E1321"/>
<ellipse cx="55.2238" cy="133.421" rx="16.4179" ry="16.5789" transform="rotate(-180 55.2238 133.421)" fill="#8E1321"/>
<ellipse cx="133.955" cy="28.4211" rx="16.0448" ry="16.5789" transform="rotate(-180 133.955 28.4211)" fill="#8E1321"/>
<ellipse cx="13.8059" cy="11.8421" rx="11.5672" ry="11.8421" transform="rotate(-180 13.8059 11.8421)" fill="#8E1321"/>
<ellipse cx="94.403" cy="65.1316" rx="11.5672" ry="12.2368" transform="rotate(-180 94.403 65.1316)" fill="#8E1321"/>
<ellipse cx="11.9403" cy="138.158" rx="11.9403" ry="11.8421" transform="rotate(-180 11.9403 138.158)" fill="#8E1321"/>
<ellipse cx="8.20895" cy="52.1053" rx="8.20895" ry="8.68421" transform="rotate(-180 8.20895 52.1053)" fill="#8E1321"/>
<ellipse cx="88.8059" cy="10.2631" rx="8.20895" ry="8.68421" transform="rotate(-180 88.8059 10.2631)" fill="#8E1321"/>
<ellipse cx="35.8209" cy="85.6579" rx="19.403" ry="20.9211" transform="rotate(-180 35.8209 85.6579)" fill="#8E1321"/>
</svg>
